<svg width="81" height="59" viewBox="0 0 81 59" fill="none" xmlns="http://www.w3.org/2000/svg">
<rect width="81" height="59" fill="#BCBCBC"/>
<g clip-path="url(#clip0)">
<rect width="1366" height="1556" transform="translate(-391 -574)" fill="white"/>
<g filter="url(#filter0_i)">
<path d="M0.613281 4.02387C0.613281 1.80155 2.41483 0 4.63715 0H76.3961C78.6184 0 80.42 1.80155 80.42 4.02387V54.4309C80.42 56.6532 78.6184 58.4547 76.3961 58.4547H4.63715C2.41483 58.4547 0.613281 56.6532 0.613281 54.4309V4.02387Z" fill="white"/>
<path d="M4.63715 0.670644H76.3961V-0.670644H4.63715V0.670644ZM79.7493 4.02387V54.4309H81.0906V4.02387H79.7493ZM76.3961 57.7841H4.63715V59.1254H76.3961V57.7841ZM1.28393 54.4309V4.02387H-0.0573632V54.4309H1.28393ZM4.63715 57.7841C2.78521 57.7841 1.28393 56.2828 1.28393 54.4309H-0.0573632C-0.0573632 57.0236 2.04444 59.1254 4.63715 59.1254V57.7841ZM79.7493 54.4309C79.7493 56.2828 78.248 57.7841 76.3961 57.7841V59.1254C78.9888 59.1254 81.0906 57.0236 81.0906 54.4309H79.7493ZM76.3961 0.670644C78.248 0.670644 79.7493 2.17193 79.7493 4.02387H81.0906C81.0906 1.43116 78.9888 -0.670644 76.3961 -0.670644V0.670644ZM4.63715 -0.670644C2.04444 -0.670644 -0.0573632 1.43116 -0.0573632 4.02387H1.28393C1.28393 2.17193 2.78521 0.670644 4.63715 0.670644V-0.670644Z" fill="#D1D5DA"/>
</g>
<g filter="url(#filter1_i)">
<path d="M46.79 41.0002C46.79 39.3433 48.1332 38.0002 49.79 38.0002H73.79C75.4469 38.0002 76.79 39.3433 76.79 41.0002V52.0002C76.79 53.657 75.4469 55.0002 73.79 55.0002H49.79C48.1332 55.0002 46.79 53.657 46.79 52.0002V41.0002Z" fill="#B6BCC2"/>
<path d="M49.79 38.6708H73.79V37.3295H49.79V38.6708ZM76.1194 41.0002V52.0002H77.4607V41.0002H76.1194ZM73.79 54.3295H49.79V55.6708H73.79V54.3295ZM47.4607 52.0002V41.0002H46.1194V52.0002H47.4607ZM49.79 54.3295C48.5036 54.3295 47.4607 53.2867 47.4607 52.0002H46.1194C46.1194 54.0274 47.7628 55.6708 49.79 55.6708V54.3295ZM76.1194 52.0002C76.1194 53.2867 75.0765 54.3295 73.79 54.3295V55.6708C75.8173 55.6708 77.4607 54.0274 77.4607 52.0002H76.1194ZM73.79 38.6708C75.0765 38.6708 76.1194 39.7137 76.1194 41.0002H77.4607C77.4607 38.9729 75.8173 37.3295 73.79 37.3295V38.6708ZM49.79 37.3295C47.7628 37.3295 46.1194 38.9729 46.1194 41.0002H47.4607C47.4607 39.7137 48.5036 38.6708 49.79 38.6708V37.3295Z" fill="#E1E4E8"/>
</g>
</g>
<defs>
<filter id="filter0_i" x="0.613281" y="0" width="79.8067" height="59.1254" filterUnits="userSpaceOnUse" color-interpolation-filters="sRGB">
<feFlood flood-opacity="0" result="BackgroundImageFix"/>
<feBlend mode="normal" in="SourceGraphic" in2="BackgroundImageFix" result="shape"/>
<feColorMatrix in="SourceAlpha" type="matrix" values="0 0 0 0 0 0 0 0 0 0 0 0 0 0 0 0 0 0 127 0" result="hardAlpha"/>
<feOffset dy="0.670644"/>
<feGaussianBlur stdDeviation="0.670644"/>
<feComposite in2="hardAlpha" operator="arithmetic" k2="-1" k3="1"/>
<feColorMatrix type="matrix" values="0 0 0 0 0.878431 0 0 0 0 0.878431 0 0 0 0 0.878431 0 0 0 1 0"/>
<feBlend mode="normal" in2="shape" result="effect1_innerShadow"/>
</filter>
<filter id="filter1_i" x="46.79" y="38.0002" width="30" height="17.6706" filterUnits="userSpaceOnUse" color-interpolation-filters="sRGB">
<feFlood flood-opacity="0" result="BackgroundImageFix"/>
<feBlend mode="normal" in="SourceGraphic" in2="BackgroundImageFix" result="shape"/>
<feColorMatrix in="SourceAlpha" type="matrix" values="0 0 0 0 0 0 0 0 0 0 0 0 0 0 0 0 0 0 127 0" result="hardAlpha"/>
<feOffset dy="0.670644"/>
<feGaussianBlur stdDeviation="0.670644"/>
<feComposite in2="hardAlpha" operator="arithmetic" k2="-1" k3="1"/>
<feColorMatrix type="matrix" values="0 0 0 0 0.878431 0 0 0 0 0.878431 0 0 0 0 0.878431 0 0 0 1 0"/>
<feBlend mode="normal" in2="shape" result="effect1_innerShadow"/>
</filter>
<clipPath id="clip0">
<rect width="1366" height="1556" fill="white" transform="translate(-391 -574)"/>
</clipPath>
</defs>
</svg>
