<svg width="24" height="24" viewBox="0 0 24 24" fill="none" xmlns="http://www.w3.org/2000/svg">
<path d="M23.25 20.25H12.75C12.336 20.25 12 19.914 12 19.5C12 19.086 12 4.914 12 4.5C12 4.086 12.336 3.75 12.75 3.75H23.25C23.664 3.75 24 4.086 24 4.5V19.5C24 19.914 23.664 20.25 23.25 20.25Z" fill="#ECEFF1"/>
<path d="M15.75 8.25H12.75C12.336 8.25 12 7.914 12 7.5C12 7.086 12.336 6.75 12.75 6.75H15.75C16.164 6.75 16.5 7.086 16.5 7.5C16.5 7.914 16.164 8.25 15.75 8.25Z" fill="#388E3C"/>
<path d="M15.75 11.25H12.75C12.336 11.25 12 10.914 12 10.5C12 10.086 12.336 9.75 12.75 9.75H15.75C16.164 9.75 16.5 10.086 16.5 10.5C16.5 10.914 16.164 11.25 15.75 11.25Z" fill="#388E3C"/>
<path d="M15.75 14.25H12.75C12.336 14.25 12 13.914 12 13.5C12 13.086 12.336 12.75 12.75 12.75H15.75C16.164 12.75 16.5 13.086 16.5 13.5C16.5 13.914 16.164 14.25 15.75 14.25Z" fill="#388E3C"/>
<path d="M15.75 17.25H12.75C12.336 17.25 12 16.914 12 16.5C12 16.086 12.336 15.75 12.75 15.75H15.75C16.164 15.75 16.5 16.086 16.5 16.5C16.5 16.914 16.164 17.25 15.75 17.25Z" fill="#388E3C"/>
<path d="M20.25 8.25H18.75C18.336 8.25 18 7.914 18 7.5C18 7.086 18.336 6.75 18.75 6.75H20.25C20.664 6.75 21 7.086 21 7.5C21 7.914 20.664 8.25 20.25 8.25Z" fill="#388E3C"/>
<path d="M20.25 11.25H18.75C18.336 11.25 18 10.914 18 10.5C18 10.086 18.336 9.75 18.75 9.75H20.25C20.664 9.75 21 10.086 21 10.5C21 10.914 20.664 11.25 20.25 11.25Z" fill="#388E3C"/>
<path d="M20.25 14.25H18.75C18.336 14.25 18 13.914 18 13.5C18 13.086 18.336 12.75 18.75 12.75H20.25C20.664 12.75 21 13.086 21 13.5C21 13.914 20.664 14.25 20.25 14.25Z" fill="#388E3C"/>
<path d="M20.25 17.25H18.75C18.336 17.25 18 16.914 18 16.5C18 16.086 18.336 15.75 18.75 15.75H20.25C20.664 15.75 21 16.086 21 16.5C21 16.914 20.664 17.25 20.25 17.25Z" fill="#388E3C"/>
<path d="M13.2285 0.923511C13.0575 0.781011 12.828 0.719511 12.612 0.764511L0.612 3.01451C0.2565 3.08051 0 3.38951 0 3.75101V20.251C0 20.611 0.2565 20.9215 0.612 20.9875L12.612 23.2375C12.657 23.2465 12.7035 23.251 12.75 23.251C12.924 23.251 13.0935 23.191 13.2285 23.0785C13.401 22.936 13.5 22.723 13.5 22.501V1.50101C13.5 1.27751 13.401 1.06601 13.2285 0.923511Z" fill="#2E7D32"/>
<path d="M10.3143 14.5058L7.94278 11.7953L10.3413 8.71127C10.5963 8.38427 10.5363 7.91327 10.2108 7.65827C9.88528 7.40327 9.41428 7.46327 9.15778 7.78877L6.93628 10.6448L5.06428 8.50577C4.78978 8.19077 4.31578 8.16227 4.00678 8.43527C3.69478 8.70827 3.66328 9.18227 3.93628 9.49277L5.99878 11.8508L3.90778 14.5388C3.65278 14.8658 3.71278 15.3368 4.03828 15.5918C4.17628 15.6983 4.33978 15.7493 4.50028 15.7493C4.72378 15.7493 4.94428 15.6503 5.09278 15.4598L7.00528 12.9998L9.18628 15.4913C9.33478 15.6623 9.54178 15.7493 9.75028 15.7493C9.92578 15.7493 10.1013 15.6878 10.2438 15.5633C10.5558 15.2903 10.5873 14.8163 10.3143 14.5058Z" fill="#FAFAFA"/>
</svg>
