<svg width="372" height="222" viewBox="0 0 372 222" fill="none" xmlns="http://www.w3.org/2000/svg">
<g opacity="0.67">
<g opacity="0.67">
<path opacity="0.67" d="M82.1242 77.3613C81.7686 65.7789 89.1152 56.189 100.096 52.7937C106.918 50.6807 114.819 51.8305 120.026 56.8211C118.815 53.9315 117.115 51.2586 114.662 48.959C106.894 41.6627 96.1121 41.3196 87.0058 46.1236C87.6205 46.6834 88.2292 47.2914 88.7837 47.9416C89.525 47.0145 91.562 48.4894 92.0923 49.1516C93.5267 50.9335 93.8883 53.5342 92.8216 55.581C91.6946 57.7361 89.091 59.0846 86.6804 58.6873C85.2581 58.4585 83.6128 57.3388 83.649 55.9061C81.0816 55.3041 78.7915 55.7194 76.7906 56.803C73.2469 61.2458 72.7708 67.2417 72.807 72.7741C72.8552 79.0048 74.1811 85.2295 78.1406 90.1839C80.2499 90.0394 82.3713 89.919 84.4927 89.8047C83.2151 85.7592 82.2508 81.6175 82.1242 77.3613Z" fill="#8B4936"/>
<path opacity="0.67" d="M65.7316 133.558C67.9313 134.112 70.1431 134.527 72.3609 134.822C68.8956 133.04 65.6834 130.717 62.8388 127.857C50.1165 115.065 44.3911 93.4347 48.5676 75.9466C50.5685 67.5608 55.4802 59.9394 63.0135 55.5268C70.8422 50.9396 81.5395 49.1275 89.8985 52.9984C89.9166 51.7402 89.555 50.3917 88.9463 49.4526C88.199 48.2968 87.1323 47.3215 86.1017 46.4185C84.3058 44.8293 82.3411 43.4447 80.2378 42.2948C76.0432 39.9952 71.3665 38.6347 66.5874 38.3879C57.3967 37.9123 48.5435 41.9517 42.8965 49.2118C35.8513 58.2779 37.3219 68.6805 38.7924 79.3178C39.8109 86.7345 40.1845 94.711 36.1406 101.255C36.9783 100.984 37.8221 100.713 38.6658 100.442C38.937 100.358 39.3167 100.599 39.2805 100.912C38.2138 109.55 41.2332 118.153 46.9284 124.685C49.6584 127.809 52.9128 130.452 56.4565 132.595C58.1139 133.6 59.8435 134.503 61.6093 135.304C62.5254 135.719 64.0863 136.713 65.0927 136.725L66.0028 137.056C66.1414 136.026 65.8762 135.093 65.2012 134.256C65.0023 133.889 65.3278 133.456 65.7316 133.558Z" fill="#8B4936"/>
<path opacity="0.67" d="M240.819 64.611C236.769 64.9421 232.887 64.5508 231.393 59.6505C230.212 55.7796 232.279 52.3603 234.744 49.4044C232.604 48.4172 230.989 46.6654 230.712 43.9263C230.447 41.3196 231.429 38.9357 232.984 36.9551C230.772 35.3357 229.808 32.7531 231.664 29.7191C233.249 27.1305 236.112 25.174 239.161 24.2108C238.137 20.683 240.614 16.9506 245.031 15.9754C250.726 14.7232 255.385 18.6603 259.236 22.4589C262.539 19.4369 266.992 17.8055 271.621 17.4202C271.512 17.348 271.41 17.2697 271.301 17.2035C271.187 17.1312 271.181 17.0169 271.229 16.9326C271.229 16.8904 271.247 16.8543 271.295 16.8242C272.525 16.1379 273.14 15.1747 273.17 13.7721C273.17 13.742 273.176 13.7179 273.188 13.6938C272.73 12.6042 271.482 11.6831 270.03 11.3039C268.029 10.7801 265.871 10.8584 263.852 11.2437C260.694 11.8397 257.832 13.3025 254.939 14.639C254.939 14.639 254.939 14.639 254.933 14.639C254.861 14.7714 254.704 14.8557 254.559 14.7533C250.552 11.9059 246.224 9.18484 241.409 7.96278C235.19 6.38554 227.252 9.54604 229.772 17.3058C229.874 17.6369 229.464 17.8777 229.211 17.7453C226.27 18.5399 224.287 20.5386 222.811 23.1813C220.912 26.5646 218.508 34.2702 224.667 35.0287C224.824 35.0528 224.926 35.1431 224.986 35.2575C225.077 35.1431 225.173 35.0347 225.27 34.9324C225.36 34.83 225.511 34.9565 225.451 35.0708C224.167 37.3344 222.871 39.5256 221.967 41.9818C221.087 44.3898 219.02 52.0412 225.396 49.4887C225.758 49.3503 225.987 49.9342 225.655 50.1088C225.631 50.1208 225.607 50.1329 225.583 50.1449C225.601 50.1871 225.613 50.2352 225.601 50.2954C225.017 53.3114 224.263 56.3335 224.305 59.4278C224.33 60.8726 224.504 62.3174 224.944 63.702C225.222 64.611 225.607 65.4658 226.107 66.2725C227.06 68.2169 228.777 68.7888 231.266 67.9942C231.405 67.8678 231.556 67.8859 231.658 67.9701C231.748 67.94 231.851 67.9641 231.917 68.0665C233.574 70.5407 235.147 73.2015 237.341 75.2543C239.378 77.1627 242.391 78.3727 244.905 77.4697C241.704 74.2911 240.192 69.3367 240.819 64.611Z" fill="#683729"/>
<path opacity="0.67" d="M88.7295 57.989C86.9697 58.4164 84.8484 57.7602 84.3481 56.0866C85.0231 56.2853 85.7102 56.5502 86.4153 56.8933C86.6563 57.0137 86.8854 56.9114 87.0119 56.7428C87.0481 56.7428 87.0842 56.7368 87.1204 56.7368C87.1023 56.8211 87.1445 56.9294 87.247 56.9234C88.4704 56.8512 89.8806 56.0626 90.2482 54.8164C90.2482 54.8044 90.2422 54.7984 90.2422 54.7923C90.5797 54.2204 90.7846 53.5643 90.8268 52.8539C90.9172 51.2646 90.2061 49.7717 89.1815 48.4412C89.8565 47.472 91.7308 49.7355 91.8754 49.9462C92.2069 50.4459 92.448 51.0058 92.6047 51.5837C92.9843 52.9924 92.7915 54.4913 91.996 55.7254C91.2728 56.8452 90.0253 57.6699 88.7295 57.989Z" fill="#77AAD4"/>
<path opacity="0.67" d="M75.573 107.383C74.3556 107.534 73.2708 107.503 72.1498 107.287C74.5364 111.296 77.2424 115.077 80.2557 118.592C85.1011 105.637 103.995 100.966 117.766 101.79C118.429 100.653 119.357 99.6413 120.423 98.8527C117.892 98.5397 115.759 96.8902 114.644 94.4882C114.023 93.1518 113.83 91.7311 113.951 90.3284C99.1553 90.7317 84.4141 90.6896 69.6367 91.707C71.3483 96.8421 73.6866 101.815 75.9888 106.667C76.1515 107.01 75.9466 107.335 75.573 107.383Z" fill="#F2888E"/>
<path opacity="0.67" d="M204.622 161.413C205.05 161.244 205.49 161.172 205.93 161.172C205.972 160.582 206.009 159.992 206.051 159.402C202.266 159.191 198.475 158.956 194.69 158.686C193.744 161.533 190.803 163.339 187.688 164.465C193.431 164.158 199.126 163.568 204.622 161.413Z" fill="#F2888E"/>
<path opacity="0.67" d="M134.575 214.22C136.286 200.121 140.035 185.089 150.859 175.247C156.897 169.756 164.208 166.837 172.127 165.602C169.421 165.031 166.811 164.037 164.485 162.562C161.399 167.463 154.547 167.547 149.575 165.771C144.181 163.839 139.643 159.546 137.811 154.098C135.888 155.633 132.917 154.429 131.037 152.93C132.272 173.23 129.609 194.282 124.679 214.136C127.981 214.178 131.278 214.202 134.575 214.22Z" fill="#F2888E"/>
<path opacity="0.67" d="M290.828 92.7485C290.46 94.1812 289.725 95.4575 288.779 96.6193C288.773 96.6193 288.773 96.6193 288.767 96.6193C288.58 96.6554 288.502 96.7939 288.508 96.9444C286.229 99.5511 282.873 101.532 280.233 103.271C272.139 108.593 263.473 113.054 254.451 116.576C244.591 120.416 234.569 122.535 224.275 124.642C224.571 124.113 224.824 123.565 225.035 123.005C227.668 115.823 225.764 106.324 218.472 102.844C223.534 101.532 223.142 94.2113 221.419 90.3525C220.991 89.4013 220.466 88.5465 219.876 87.7579C230.115 85.085 240.505 83.0442 251.004 81.7258C255.252 81.1901 259.513 80.7747 263.786 80.4676C263.81 80.4737 263.828 80.4737 263.852 80.4676C264.696 80.4074 265.534 80.3412 266.378 80.2931C271.38 79.9861 276.689 79.4382 281.607 80.6362C286.995 81.9486 292.371 86.6923 290.828 92.7485Z" fill="#F2888E"/>
<path opacity="0.67" d="M136.497 148.759C136.515 147.765 136.503 146.79 136.509 145.821C136.545 145.881 136.599 145.923 136.683 145.917C138.317 145.797 139.974 145.646 141.583 145.363C141.625 145.351 141.667 145.339 141.698 145.315C141.722 146.242 141.83 147.151 142.089 148.006C140.275 148.548 138.546 148.65 136.659 148.71C136.599 148.716 136.545 148.734 136.497 148.759Z" fill="#FAD87F"/>
<path opacity="0.67" d="M141.692 144.791C141.644 144.749 141.577 144.719 141.499 144.731C139.866 144.882 138.232 145.177 136.623 145.496C136.575 145.502 136.533 145.532 136.509 145.568C136.521 144.051 136.563 142.54 136.804 141.005C138.425 141.444 140.101 141.781 141.776 141.878C141.83 141.884 141.873 141.872 141.909 141.86C141.794 142.829 141.704 143.822 141.692 144.791Z" fill="#FAD87F"/>
<path opacity="0.67" d="M142.3 138.434C142.288 138.663 142.27 138.88 142.252 139.066C142.18 139.807 142.071 140.589 141.969 141.39C141.92 141.342 141.86 141.3 141.776 141.294C140.137 141.083 138.497 140.902 136.87 140.626C137.033 139.674 137.238 138.723 137.497 137.796C137.521 137.694 137.563 137.555 137.611 137.393C139.088 137.977 140.721 138.386 142.3 138.434Z" fill="#FAD87F"/>
<path opacity="0.67" d="M142.596 134.967C142.445 135.948 142.385 136.965 142.337 137.826C140.758 137.64 139.257 137.405 137.72 137.02C137.949 136.303 138.299 135.316 138.763 134.407C140.028 134.63 141.312 134.816 142.596 134.967Z" fill="#FAD87F"/>
<path opacity="0.67" d="M143.072 133.052C142.915 133.462 142.795 133.907 142.698 134.371C141.463 134.214 140.215 134.1 138.974 134.016C139.932 132.318 141.324 131.132 143.072 133.052Z" fill="#FAD87F"/>
<path opacity="0.67" d="M353.613 26.2154C354.035 27.3412 354.282 28.497 354.343 29.695C353.674 29.713 353.029 29.7973 352.444 29.9839L352.438 29.9538C352.528 29.9177 352.601 29.8214 352.583 29.695C352.528 29.3579 352.474 29.0207 352.42 28.6896C351.606 27.3291 351.835 26.5405 353.107 26.3238C353.276 26.2275 353.439 26.1552 353.595 26.095C353.595 26.1311 353.601 26.1673 353.613 26.2154Z" fill="#FAD87F"/>
<path opacity="0.67" d="M356.946 26.1191C356.88 27.3532 356.91 28.6535 357.043 29.8876C356.29 29.7793 355.506 29.695 354.741 29.689C354.825 28.4368 354.674 27.2268 354.216 26.0408C354.198 25.9987 354.174 25.9566 354.144 25.9265C354.656 25.8362 355.163 25.8602 355.771 25.8602C356.205 25.8602 356.639 25.8783 357.073 25.8843C357.001 25.9325 356.952 26.0168 356.946 26.1191Z" fill="#FAD87F"/>
<path opacity="0.67" d="M360.647 26.0649C360.442 27.4555 360.58 28.9846 360.659 30.3993C360.231 30.3451 359.815 30.297 359.417 30.2488C358.821 30.1766 358.152 30.0622 357.447 29.9538C357.585 28.7017 357.621 27.3833 357.549 26.1251C357.543 26.0228 357.501 25.9445 357.435 25.8963C358.507 25.9264 359.58 25.9746 360.653 26.0529C360.653 26.0589 360.647 26.0589 360.647 26.0649Z" fill="#FAD87F"/>
<path opacity="0.67" d="M364.094 26.6308C363.829 27.9853 363.702 29.4301 363.648 30.8147C362.78 30.6582 361.906 30.5438 361.068 30.4475C361.147 29.0207 361.285 27.4856 361.086 26.077C361.207 26.089 361.334 26.095 361.46 26.101C362.286 26.1733 363.352 26.1733 364.407 26.2395L364.401 26.396C364.263 26.396 364.124 26.4622 364.094 26.6308Z" fill="#FAD87F"/>
<path opacity="0.67" d="M364.745 26.7151C364.757 26.5044 364.576 26.39 364.401 26.39L364.407 26.2335C365.588 26.3117 366.752 26.4743 367.559 26.9198C367.571 26.9258 367.583 26.9378 367.595 26.9438C367.047 28.4127 366.667 29.9719 366.39 31.513C365.655 31.2481 364.877 31.0495 364.094 30.893C364.401 29.5445 364.654 28.1057 364.745 26.7151Z" fill="#FAD87F"/>
<path opacity="0.67" d="M368.156 27.3171C369.922 28.6956 368.921 30.4174 368.306 32.428C367.842 32.127 367.33 31.8923 366.8 31.6816C367.234 30.2247 367.71 28.7739 368.156 27.3171Z" fill="#FAD87F"/>
<path opacity="0.67" d="M225.095 180.972C225.101 172.676 223.359 164.724 222.642 156.5C222.1 150.288 222.473 143.551 226.276 138.332C231.29 131.451 240.433 129.194 248.304 127.442C259.007 125.064 269.62 123.77 279.775 119.393C289.116 115.366 298.47 110.748 306.979 105.144C315.398 99.6052 323.058 92.9772 329.905 85.5967C337.028 77.9152 342.247 69.5594 346.809 60.1682C350.534 52.4987 354.035 41.7229 362.274 37.7196C365.01 36.3892 367.728 36.2267 370.325 36.8046C368.885 31.7719 362.449 31.4287 357.844 30.9592C354.97 30.6642 351.751 30.3331 350.437 33.4876C349.461 35.8233 348.816 38.2855 348.159 40.7236C344.314 55.0452 337.329 67.7715 326.469 78.0175C316.122 87.782 303.219 94.5906 289.225 97.2755C287.531 99.232 285.313 100.803 283.246 102.23C274.363 108.376 264.738 113.451 254.668 117.364C244.935 121.151 234.316 124.402 223.853 125.329C220.804 130.036 214.464 132.89 209.908 128.14C209.811 128.044 209.787 127.941 209.799 127.839C209.745 127.767 209.691 127.695 209.649 127.616C188.597 131.289 166.516 133.353 145.109 131.746C145.109 131.74 145.109 131.74 145.109 131.734C142.71 133.666 143.054 139.072 142.789 141.691C142.493 144.641 142.066 147.735 144.175 150.167C144.205 150.203 144.229 150.245 144.241 150.282C149.291 151.877 154.257 153.442 159.519 154.351C165.256 155.344 171.066 155.862 176.863 156.374C186.615 157.229 196.378 157.867 206.147 158.433C206.243 158.24 206.545 158.246 206.611 158.457C208.714 158.583 210.824 158.704 212.927 158.818C213.168 158.83 213.307 158.987 213.355 159.167C213.524 159.119 213.735 159.215 213.765 159.438C214.825 168.986 214.428 178.774 214.5 188.364C214.566 196.894 214.621 205.425 214.675 213.955C217.724 213.943 220.768 213.931 223.811 213.925C224.137 202.939 225.089 191.97 225.095 180.972Z" fill="#FAD87F"/>
<path opacity="0.67" d="M147.218 152.112C146.971 152.015 146.724 151.919 146.477 151.817C145.784 151.606 145.097 151.371 144.446 151.07C144.235 150.968 144.03 150.866 143.837 150.757C143.783 150.739 143.729 150.715 143.675 150.661C143.662 150.655 143.65 150.643 143.644 150.631C143.446 150.504 143.265 150.36 143.102 150.197C142.988 150.137 142.867 150.083 142.752 150.017C142.662 149.963 142.716 149.824 142.813 149.836C142.65 149.589 142.523 149.3 142.469 148.957C142.415 148.843 142.355 148.728 142.3 148.608C140.529 149.367 138.468 149.794 136.551 149.445C136.37 149.409 136.292 149.276 136.286 149.132C136.195 149.138 136.105 149.096 136.081 148.987C135.641 147.145 135.52 145.11 135.665 143.052C133.556 142.997 131.446 142.763 129.373 142.347C129.379 142.377 129.379 142.407 129.367 142.444C128.325 145.104 128.234 147.892 129.765 150.402C131.103 152.605 135.31 155.537 137.787 153.207C138.1 152.912 138.534 153.358 138.257 153.677C138.251 153.677 138.251 153.677 138.251 153.677C140.288 158.511 143.789 162.418 148.665 164.531C150.087 165.145 151.714 165.615 153.384 165.855C149.737 162.743 147.791 157.638 147.218 152.112Z" fill="#F7BE29"/>
<path opacity="0.67" d="M129.705 128.327C129.627 128.224 129.554 128.116 129.488 128.014C129.283 127.875 129.144 127.622 129.09 127.4C129.03 127.147 129.066 126.948 129.175 126.761C129.108 126.725 129.066 126.641 129.114 126.569C130.41 124.685 132.453 125.6 134.406 127.231C131.175 121.789 131.429 115.655 134.574 110.73C132.483 108.96 130.748 106.757 129.916 104.313C129.012 101.652 129.422 99.3403 130.639 97.4681C129.825 96.3544 129.211 95.0782 128.891 93.6153C128.005 89.588 129.831 85.7111 133.068 83.3392C138.088 79.661 145.169 80.4676 149.75 76.1332C153.516 72.5754 154.016 66.8624 154.432 61.9983C154.981 55.5328 155.403 49.2419 158 43.2099C163.207 31.1458 175.447 22.9887 188.754 26.2756C189.471 26.4562 190.17 26.6549 190.851 26.8716C189.923 25.8903 188.875 24.9753 187.694 24.1385C177.081 16.6677 158.235 20.1834 150.147 29.9598C140.878 41.1691 148.14 57.4412 140.137 69.1741C136.37 74.6884 129.958 76.5306 124.293 79.4322C120.478 81.3887 116.645 84.1218 115.319 88.4261C113.939 92.923 116.675 98.2929 121.846 98.016C122.274 97.9919 122.437 98.624 122.063 98.8166C119.556 100.147 117.447 102.621 117.567 105.607C117.706 109.045 121.105 111.501 124.389 110.682C124.426 110.664 124.468 110.646 124.51 110.634C124.606 110.598 124.679 110.622 124.739 110.676C124.938 110.784 124.968 111.14 124.685 111.23C124.594 111.26 124.51 111.278 124.42 111.302C120.044 114.324 116.452 121.163 122.407 124.793C122.515 124.859 122.563 124.943 122.575 125.034C122.63 125.1 122.648 125.19 122.599 125.287C122.389 125.66 122.196 126.021 122.099 126.442C122.027 126.773 122.039 127.087 122.057 127.412C124.257 126.984 129.175 129.127 131.911 130.524C131.115 129.844 130.332 129.115 129.705 128.327Z" fill="#F7BE29"/>
<path opacity="0.67" d="M8.9244 68.9755C9.90072 69.7821 10.871 70.6069 11.8654 71.3835C10.9011 72.1721 10.0996 72.9667 9.54514 73.8336C9.0148 73.4483 8.48445 73.0691 8.02642 72.5875C7.49608 72.0336 7.1164 71.3895 6.65234 70.7935C7.41773 70.1735 8.17106 69.5714 8.9244 68.9755Z" fill="#66D2E6"/>
<path opacity="0.67" d="M12.4256 66.3387C13.1066 67.326 13.7816 68.3193 14.5108 69.2765C13.6792 69.9206 12.9198 70.5467 12.2749 71.0524C11.2685 70.2638 10.2259 69.5173 9.19531 68.7588C10.2681 67.922 11.3348 67.1153 12.4256 66.3387Z" fill="#66D2E6"/>
<path opacity="0.67" d="M16.7951 63.5695C17.3977 64.5989 17.9522 65.6404 18.4464 66.73C17.229 67.32 16.0236 68.1327 14.9268 68.9634C14.2277 67.9942 13.4683 67.0671 12.7271 66.134C14.0288 65.213 15.3788 64.3642 16.7951 63.5695Z" fill="#66D2E6"/>
<path opacity="0.67" d="M19.9894 61.92C20.8211 63.106 21.3153 64.3882 21.4057 65.8511C20.5861 65.8932 19.7363 66.1401 18.8866 66.5073C18.5009 65.3815 17.9886 64.2678 17.3618 63.2505C18.2055 62.7869 19.0734 62.3414 19.9834 61.9261C19.9894 61.9321 19.9894 61.92 19.9894 61.92Z" fill="#66D2E6"/>
<path opacity="0.67" d="M38.2499 101.58C37.6412 107.937 39.0575 113.728 41.8478 118.797C30.4333 109.592 20.652 98.7083 13.4863 85.8736C11.4071 82.1412 7.77907 77.1506 11.2082 73.2557C12.6125 71.6604 14.8544 70.4082 16.6503 69.2705C17.4037 68.7949 18.157 68.3073 18.9465 67.8919C20.9775 66.8203 23.2495 67.5367 24.7924 69.12C25.9435 70.2999 26.7751 72.142 27.7334 73.4965C28.77 74.9654 29.8427 76.4102 30.9576 77.8249C33.296 80.8048 35.8031 83.6462 38.4488 86.3552C38.6778 91.8214 37.9365 97.1431 34.5375 101.887C34.2844 102.236 34.7002 102.736 35.0919 102.609C36.1466 102.272 37.1952 101.929 38.2499 101.58Z" fill="#66D2E6"/>
<path opacity="0.67" d="M88.5909 185.782C87.1746 177.227 84.6735 168.859 83.5646 160.257C82.7088 153.593 83.3899 147.043 89.0429 142.672C93.6292 139.127 99.7824 137.989 105.472 138.109C113.439 138.278 120.689 141.974 128.325 143.828C128.493 143.304 128.71 142.787 128.988 142.293C128.994 142.287 129 142.281 129.006 142.275C128.078 142.082 127.156 141.854 126.245 141.589C124.546 141.089 122.545 140.601 121.261 139.313C120.809 139.018 120.43 138.561 120.339 138.085C120.225 137.531 120.448 136.965 120.96 136.731C120.906 136.682 120.846 136.64 120.791 136.592C119.532 135.84 119.429 133.907 120.671 133.076C120.496 132.92 120.339 132.745 120.219 132.547C119.719 132.276 119.55 131.577 119.707 131.03C119.911 130.313 120.544 129.964 121.219 129.808C120.936 129.464 120.791 129.121 120.84 128.772C109.6 128.995 97.6309 128.628 86.7829 125.371C89.7661 128.134 92.9602 130.674 96.3532 132.974C96.6847 133.197 96.6485 133.715 96.2387 133.835C86.4996 136.731 76.3266 137.014 66.4489 134.696C66.8828 135.683 67.1359 136.676 67.2625 137.808C67.2987 138.109 66.9371 138.35 66.6659 138.266C65.6474 137.916 64.6288 137.537 63.6284 137.128C70.2276 148.343 71.9573 162.267 74.1028 174.867C76.2663 187.545 77.9598 200.296 79.2134 213.094C82.6667 213.221 86.1199 213.335 89.5732 213.437C90.5013 204.239 90.1036 194.89 88.5909 185.782Z" fill="#66D2E6"/>
<path opacity="0.67" d="M2.86142 51.9629C3.38574 51.4392 4.27166 51.4151 4.92857 51.68C4.94062 51.686 4.9587 51.68 4.97075 51.68C5.19977 52.276 5.50712 52.8599 5.85667 53.4318C6.99571 55.3161 8.31555 57.1401 9.62334 58.904C9.82824 59.1809 10.2923 58.9281 10.0994 58.6271C8.21912 55.7074 5.36851 52.8539 4.94665 49.278C5.08526 48.8506 5.34441 48.4894 5.82051 48.3208C6.47139 48.0921 7.16446 48.3811 7.6044 48.8747C7.68275 48.953 7.77918 48.9469 7.84547 48.8928C7.86958 48.965 7.88766 49.0372 7.91177 49.1095C8.88809 51.969 10.7805 54.8766 12.2269 57.5254C12.4077 57.8565 12.8838 57.5676 12.7271 57.2365C11.9677 55.6653 11.1541 54.1301 10.3586 52.583C9.73182 51.367 7.20665 47.8393 8.77961 46.5389C12.709 46.6533 13.6913 54.9368 14.7641 57.706C14.7641 57.7121 14.7641 57.7241 14.7641 57.7301C14.7761 58.0913 15.3487 58.0973 15.3306 57.7301C15.2583 56.1408 14.7822 51.7101 16.8915 51.2405C19.2841 52.3603 18.0004 60.3067 17.5243 62.1849C14.975 63.3106 12.4257 64.7976 10.2019 66.5855C8.15283 64.9059 -2.20701 56.0084 2.25273 54.5154C2.30094 54.4974 2.33107 54.4733 2.35518 54.4432C3.50025 57.0137 5.45891 59.2893 7.69481 60.9388C7.95395 61.1254 8.28542 60.698 8.03833 60.4933C5.84462 58.6632 4.19934 56.6104 2.71678 54.2445C2.73486 54.1904 2.74089 54.1241 2.71075 54.0579C2.40339 53.3415 2.23465 52.571 2.86142 51.9629Z" fill="#F4D9BF"/>
<path opacity="0.67" d="M121.008 138.272C120.779 137.88 120.809 137.272 121.249 137.044C121.285 137.026 121.303 137.001 121.321 136.977C122.111 137.453 123.136 137.646 123.997 137.898C126.553 138.645 129.15 139.271 131.778 139.735C132.109 139.789 132.254 139.289 131.916 139.223C129.988 138.838 128.065 138.44 126.167 137.947C124.793 137.585 122.732 137.321 121.37 136.508C121.382 136.442 121.364 136.369 121.303 136.315C120.279 135.484 120.08 134.347 120.948 133.293C121.551 133.733 122.328 134.016 123.051 134.317C125.998 135.545 129.144 136.514 132.326 136.899C132.567 136.923 132.615 136.526 132.38 136.472C130.446 136.026 128.523 135.647 126.625 135.051C125.094 134.569 122.021 133.931 120.755 132.48C120.749 132.414 120.731 132.348 120.677 132.312C120.61 132.258 120.55 132.198 120.496 132.137C120.393 131.963 120.303 131.782 120.249 131.583C120.219 131.385 120.249 131.168 120.363 130.969C120.598 130.56 121.068 130.295 121.514 130.121C123.871 132.318 131.597 134.202 132.688 134.407C132.995 134.467 133.134 134.022 132.82 133.931C131.308 133.504 121.84 131.066 121.52 128.658C122.684 126.701 131.055 130.705 133.218 131.674C133.26 131.71 133.303 131.746 133.345 131.788C133.429 131.86 133.525 131.866 133.61 131.83C133.712 131.854 133.773 131.77 133.773 131.68C133.809 131.602 133.797 131.499 133.712 131.421C132.989 130.765 132.266 130.109 131.555 129.44C130.777 128.718 129.15 127.574 129.795 126.34C132.236 124.835 136.876 131.084 138.823 132.607C138.552 132.932 138.311 133.299 138.112 133.703C136.87 136.243 136.008 139.343 135.719 142.438C131.79 142.197 125.866 141.836 122.232 139.512C122.268 139.452 122.268 139.373 122.201 139.301C121.84 138.904 121.291 138.747 121.008 138.272Z" fill="#F4D9BF"/>
<path opacity="0.67" d="M263.256 74.1045C263.521 75.9226 263.654 77.7707 263.641 79.6068C262.075 79.7392 260.514 79.8837 258.965 80.0282C254.324 80.4556 249.696 81.0275 245.091 81.7258C244.85 80.5941 244.808 79.4864 244.772 78.3426C246.032 77.9693 247.159 77.2168 247.948 76.055C252.715 80.6422 258.983 78.1861 263.256 74.1045Z" fill="#F4D9BF"/>
<path opacity="0.67" d="M359.496 3.21901C359.797 2.07521 360.478 1.0458 361.707 1.18426C364.076 2.38826 362.859 12.1647 362.756 14.0851C362.732 14.4764 363.347 14.4764 363.371 14.0851C363.437 12.9774 364.07 8.07114 363.732 4.54342C363.757 4.51934 363.769 4.48321 363.769 4.44107C363.738 3.23707 364.648 2.36418 365.806 2.32204C367.18 3.28524 366.354 7.45107 366.282 8.83567C366.179 10.7922 365.998 12.7366 365.842 14.6871C365.812 15.0784 366.396 15.0604 366.444 14.6871C366.848 11.6049 367.059 8.46244 367.017 5.3501C367.083 5.38622 367.174 5.3802 367.222 5.30194C367.614 4.69994 368.301 4.66382 368.891 4.93472C368.915 4.94676 368.933 4.94073 368.952 4.94073C369.759 6.07851 369.301 8.76946 369.247 9.87714C369.156 11.9059 368.915 13.9226 368.602 15.9333C368.072 19.2804 367.306 22.5793 366.529 25.8783C366.523 25.9204 366.523 25.9565 366.529 25.9927C364.847 25.7157 363.154 25.5051 361.46 25.3545C359.568 25.192 357.67 25.1077 355.771 25.1198C355.446 25.1198 355.006 25.0776 354.548 25.0475C354.307 22.6335 353.68 20.3098 352.728 18.0764C351.878 16.0777 347.207 10.449 349.226 8.40826C351.667 7.19824 354.24 12.9293 354.988 14.5607C355.12 14.8436 355.584 14.663 355.524 14.3801C355.572 12.1948 355.5 10.0096 355.584 7.82432C355.657 5.9521 355.373 2.76752 356.687 1.1361C359.273 0.275239 358.821 7.37281 358.833 8.11929C358.875 10.2082 358.911 12.2972 358.959 14.3861C358.965 14.7594 359.55 14.7594 359.544 14.3861C359.508 12.1346 359.466 9.88918 359.423 7.6377C359.399 6.39758 359.646 4.65779 359.496 3.21901Z" fill="#F4D9BF"/>
<path opacity="0.67" d="M162.887 162.755C162.911 162.755 162.911 162.791 162.887 162.791C162.864 162.791 162.864 162.755 162.887 162.755Z" fill="#071C2E"/>
<path opacity="0.67" d="M366.8 31.6816C367.33 31.8923 367.842 32.1271 368.306 32.4281C368.921 30.4174 369.922 28.6957 368.156 27.3171C367.71 28.7739 367.234 30.2247 366.8 31.6816ZM360.647 26.0649C360.647 26.0589 360.653 26.0589 360.653 26.0529C359.58 25.9746 358.507 25.9265 357.434 25.8964C357.501 25.9445 357.543 26.0228 357.549 26.1251C357.621 27.3833 357.585 28.7017 357.446 29.9538C358.151 30.0622 358.82 30.1766 359.417 30.2488C359.815 30.297 360.231 30.3451 360.659 30.3993C360.58 28.9786 360.442 27.4495 360.647 26.0649ZM361.087 26.077C361.285 27.4856 361.147 29.0207 361.068 30.4475C361.906 30.5438 362.78 30.6582 363.648 30.8147C363.702 29.4301 363.829 27.9853 364.094 26.6308C364.124 26.4683 364.263 26.396 364.401 26.396C364.576 26.396 364.757 26.5104 364.745 26.7211C364.654 28.1057 364.401 29.5445 364.094 30.899C364.877 31.0555 365.655 31.2542 366.39 31.519C366.667 29.9779 367.047 28.4187 367.595 26.9499C367.583 26.9438 367.571 26.9318 367.559 26.9258C366.752 26.4803 365.588 26.3178 364.407 26.2395C363.353 26.1733 362.286 26.1733 361.46 26.101C361.334 26.095 361.207 26.083 361.087 26.077ZM355.771 25.8602C355.162 25.8602 354.656 25.8362 354.144 25.9265C354.174 25.9566 354.198 25.9987 354.216 26.0408C354.674 27.2268 354.825 28.4368 354.74 29.689C355.506 29.695 356.289 29.7793 357.043 29.8876C356.91 28.6535 356.88 27.3532 356.946 26.1191C356.952 26.0107 357 25.9325 357.073 25.8843C356.639 25.8783 356.205 25.8602 355.771 25.8602ZM352.728 18.0704C353.68 20.3038 354.306 22.6275 354.548 25.0415C355.006 25.0716 355.446 25.1138 355.771 25.1138C357.669 25.1017 359.568 25.186 361.46 25.3485C363.154 25.499 364.847 25.7097 366.529 25.9867C366.523 25.9505 366.523 25.9144 366.529 25.8723C367.306 22.5733 368.071 19.2744 368.602 15.9272C368.915 13.9166 369.156 11.8999 369.247 9.87112C369.301 8.76344 369.759 6.0725 368.951 4.93472C368.933 4.93472 368.915 4.94074 368.891 4.9287C368.3 4.6578 367.613 4.69392 367.222 5.29592C367.173 5.37418 367.083 5.3802 367.017 5.34408C367.059 8.45642 366.848 11.5989 366.444 14.6811C366.396 15.0543 365.811 15.0724 365.842 14.6811C365.998 12.7306 366.179 10.7862 366.281 8.82966C366.354 7.44506 367.179 3.27922 365.805 2.31602C364.648 2.35816 363.738 3.23106 363.768 4.43506C363.768 4.4772 363.756 4.51332 363.732 4.5374C364.07 8.06512 363.437 12.9714 363.371 14.0791C363.346 14.4704 362.732 14.4704 362.756 14.0791C362.858 12.1587 364.076 2.38224 361.707 1.17824C360.478 1.03978 359.797 2.0692 359.495 3.213C359.646 4.65178 359.399 6.39156 359.423 7.63168C359.465 9.88316 359.508 12.1286 359.544 14.3801C359.55 14.7533 358.965 14.7533 358.959 14.3801C358.911 12.2912 358.875 10.2022 358.833 8.11328C358.82 7.3668 359.272 0.269215 356.687 1.13007C355.373 2.76149 355.656 5.94608 355.584 7.8183C355.5 10.0036 355.572 12.1888 355.524 14.3741C355.584 14.657 355.12 14.8376 354.988 14.5547C354.24 12.9233 351.667 7.19222 349.226 8.40224C347.207 10.443 351.878 16.0777 352.728 18.0704ZM245.091 81.7259C249.696 81.0275 254.324 80.4556 258.965 80.0282C260.513 79.8837 262.074 79.7392 263.641 79.6068C263.653 77.7707 263.521 75.9226 263.256 74.1045C258.983 78.1861 252.715 80.6483 247.948 76.055C247.158 77.2169 246.031 77.9694 244.772 78.3426C244.808 79.4864 244.85 80.5941 245.091 81.7259ZM224.275 124.636C234.569 122.529 244.591 120.41 254.451 116.57C263.473 113.048 272.139 108.587 280.233 103.265C282.872 101.526 286.229 99.5451 288.507 96.9384C288.501 96.7879 288.58 96.6494 288.767 96.6133C288.773 96.6133 288.773 96.6133 288.779 96.6133C289.725 95.4514 290.46 94.1752 290.828 92.7424C292.37 86.6923 286.995 81.9426 281.607 80.6302C276.689 79.4322 271.38 79.98 266.377 80.2871C265.534 80.3352 264.696 80.4015 263.852 80.4616C263.828 80.4677 263.81 80.4677 263.786 80.4616C259.513 80.7687 255.252 81.1841 251.003 81.7198C240.505 83.0382 230.115 85.079 219.876 87.7519C220.466 88.5405 220.991 89.3953 221.419 90.3465C223.142 94.2053 223.534 101.526 218.471 102.838C225.764 106.318 227.668 115.817 225.035 122.999C224.824 123.565 224.57 124.113 224.275 124.636ZM212.927 159.757C210.836 159.661 208.738 159.552 206.641 159.438C206.834 169.016 206.334 178.552 207.075 188.123C207.75 196.949 209.269 205.636 212.174 213.973C212.704 213.973 213.24 213.967 213.777 213.967C213.668 195.871 213.632 177.775 213.174 159.691C213.108 159.727 213.029 159.757 212.927 159.757ZM145.109 131.734C142.71 133.666 143.054 139.072 142.789 141.691C142.493 144.641 142.065 147.735 144.175 150.167C144.205 150.203 144.229 150.245 144.241 150.282C149.291 151.877 154.257 153.442 159.519 154.351C165.256 155.344 171.066 155.862 176.863 156.374C186.615 157.229 196.378 157.867 206.147 158.433C206.243 158.24 206.545 158.246 206.611 158.457C208.714 158.583 210.824 158.704 212.927 158.818C213.168 158.83 213.307 158.987 213.355 159.167C213.524 159.119 213.735 159.215 213.765 159.438C214.825 168.986 214.428 178.774 214.5 188.364C214.566 196.894 214.62 205.425 214.675 213.955C243.398 213.829 272.109 213.931 300.814 215.075C300.452 203.854 300.024 192.626 299.506 181.411C298.946 169.287 297.716 157.06 297.728 144.924C297.451 144.671 297.439 144.123 297.915 143.991C315.802 139.03 331.285 127.767 342.88 113.427C354.367 99.226 361.798 82.0931 366.269 64.4906C367.354 60.2284 368.27 55.9301 369.042 51.6018C369.813 47.2373 371.127 42.3069 370.542 37.8701C369.747 31.814 362.75 31.4588 357.844 30.9592C354.969 30.6642 351.751 30.3331 350.437 33.4876C349.461 35.8233 348.816 38.2855 348.159 40.7236C344.314 55.0452 337.329 67.7715 326.469 78.0175C316.122 87.782 303.218 94.5906 289.225 97.2755C287.531 99.232 285.313 100.803 283.246 102.23C274.363 108.376 264.738 113.451 254.668 117.364C244.935 121.151 234.316 124.402 223.853 125.329C220.804 130.036 214.464 132.89 209.908 128.14C209.811 128.044 209.787 127.941 209.799 127.839C209.745 127.767 209.691 127.695 209.648 127.616C188.597 131.289 166.516 133.353 145.109 131.746C145.109 131.746 145.109 131.746 145.109 131.734ZM142.596 134.967C141.312 134.816 140.028 134.63 138.763 134.407C138.299 135.316 137.949 136.303 137.72 137.02C139.257 137.405 140.758 137.64 142.337 137.826C142.385 136.965 142.445 135.948 142.596 134.967ZM141.969 141.396C142.071 140.595 142.18 139.813 142.252 139.072C142.27 138.886 142.288 138.669 142.3 138.44C140.721 138.386 139.088 137.983 137.612 137.399C137.563 137.561 137.521 137.7 137.497 137.802C137.238 138.729 137.033 139.68 136.87 140.632C138.498 140.908 140.137 141.089 141.776 141.3C141.86 141.306 141.921 141.342 141.969 141.396ZM143.072 133.052C141.324 131.132 139.932 132.318 138.974 134.016C140.215 134.1 141.463 134.214 142.698 134.371C142.795 133.913 142.915 133.462 143.072 133.052ZM136.804 141.005C136.563 142.54 136.521 144.051 136.509 145.568C136.533 145.532 136.575 145.502 136.623 145.496C138.232 145.177 139.866 144.882 141.499 144.731C141.577 144.719 141.644 144.749 141.692 144.791C141.704 143.816 141.794 142.829 141.909 141.86C141.873 141.872 141.83 141.884 141.776 141.878C140.101 141.781 138.425 141.444 136.804 141.005ZM136.509 145.821C136.503 146.79 136.515 147.765 136.497 148.759C136.545 148.728 136.599 148.71 136.659 148.71C138.546 148.65 140.275 148.548 142.09 148.006C141.83 147.151 141.722 146.242 141.698 145.315C141.668 145.339 141.625 145.351 141.583 145.363C139.974 145.646 138.317 145.797 136.684 145.917C136.599 145.929 136.545 145.881 136.509 145.821ZM129.771 150.408C131.109 152.611 135.316 155.543 137.792 153.213C138.106 152.918 138.54 153.364 138.263 153.683C138.257 153.683 138.257 153.683 138.257 153.683C140.294 158.517 143.795 162.424 148.671 164.537C153.564 166.656 160.887 167.126 163.996 161.882C164.213 161.515 164.714 161.732 164.726 162.075C169.577 164.308 174.561 165.621 179.949 165.175C184.722 164.784 191.376 163.14 193.859 158.631C187.609 158.18 181.365 157.65 175.122 157.078C165.804 156.217 155.324 155.567 146.483 151.823C145.79 151.612 145.103 151.377 144.452 151.076C144.241 150.974 144.036 150.872 143.843 150.763C143.789 150.745 143.735 150.721 143.681 150.667C143.668 150.661 143.656 150.649 143.65 150.637C143.452 150.51 143.271 150.366 143.108 150.203C142.993 150.143 142.873 150.089 142.758 150.023C142.668 149.969 142.722 149.83 142.819 149.842C142.656 149.595 142.529 149.306 142.475 148.963C142.421 148.849 142.361 148.734 142.306 148.614C140.535 149.373 138.473 149.8 136.557 149.451C136.376 149.415 136.298 149.282 136.292 149.138C136.201 149.144 136.111 149.102 136.087 148.993C135.647 147.151 135.526 145.116 135.671 143.058C133.562 143.003 131.452 142.769 129.379 142.353C129.385 142.383 129.385 142.413 129.373 142.45C128.331 145.104 128.24 147.892 129.771 150.408ZM131.043 152.93C132.278 173.23 129.614 194.282 124.684 214.136C153.504 214.455 182.336 214.118 211.161 213.973C205.165 196.786 204.701 177.354 206.051 159.402C202.266 159.191 198.475 158.956 194.69 158.686C193.129 163.369 186.181 165.259 181.914 165.885C176.008 166.752 169.577 165.789 164.491 162.562C161.405 167.463 154.553 167.547 149.581 165.771C144.187 163.839 139.649 159.546 137.817 154.098C135.894 155.639 132.923 154.435 131.043 152.93ZM120.755 132.48C122.021 133.931 125.094 134.569 126.625 135.051C128.523 135.647 130.446 136.026 132.381 136.472C132.616 136.526 132.567 136.923 132.326 136.899C129.144 136.514 125.998 135.545 123.051 134.317C122.328 134.016 121.551 133.733 120.948 133.293C120.08 134.347 120.279 135.484 121.304 136.315C121.364 136.369 121.382 136.442 121.37 136.508C122.732 137.321 124.793 137.585 126.167 137.947C128.065 138.44 129.988 138.838 131.916 139.223C132.254 139.289 132.109 139.789 131.778 139.735C129.15 139.271 126.553 138.645 123.997 137.898C123.136 137.646 122.111 137.453 121.322 136.977C121.304 137.001 121.285 137.026 121.249 137.044C120.809 137.272 120.779 137.88 121.008 138.272C121.291 138.753 121.84 138.91 122.201 139.301C122.268 139.373 122.268 139.452 122.232 139.512C125.866 141.836 131.79 142.197 135.719 142.438C136.009 139.343 136.87 136.243 138.112 133.703C138.311 133.299 138.552 132.932 138.823 132.607C136.876 131.084 132.236 124.835 129.795 126.34C129.15 127.574 130.777 128.718 131.555 129.44C132.266 130.109 132.989 130.765 133.712 131.421C133.797 131.499 133.809 131.602 133.773 131.68C133.773 131.77 133.712 131.854 133.61 131.83C133.526 131.866 133.429 131.86 133.345 131.788C133.303 131.746 133.26 131.71 133.218 131.674C131.055 130.705 122.684 126.701 121.52 128.658C121.84 131.066 131.308 133.504 132.82 133.931C133.134 134.022 132.995 134.467 132.688 134.407C131.597 134.202 123.871 132.318 121.514 130.121C121.068 130.295 120.598 130.56 120.363 130.969C120.249 131.168 120.219 131.385 120.249 131.583C120.303 131.782 120.393 131.963 120.496 132.137C120.55 132.198 120.61 132.258 120.677 132.312C120.731 132.348 120.749 132.408 120.755 132.48ZM124.413 111.314C120.038 114.336 116.446 121.175 122.4 124.805C122.509 124.871 122.557 124.955 122.569 125.046C122.623 125.112 122.641 125.202 122.593 125.299C122.382 125.672 122.189 126.033 122.093 126.454C122.021 126.786 122.033 127.099 122.051 127.424C124.251 126.996 129.168 129.139 131.904 130.536C131.115 129.844 130.331 129.115 129.705 128.333C129.626 128.23 129.554 128.122 129.488 128.02C129.283 127.881 129.144 127.628 129.09 127.406C129.03 127.153 129.066 126.954 129.174 126.767C129.108 126.731 129.066 126.647 129.114 126.575C131.712 122.794 137.304 130.265 139.191 132.216C140.408 131.06 142.071 130.807 143.409 132.348C143.946 131.451 144.753 130.885 146.013 131.018C146.061 131.024 146.091 131.054 146.103 131.084C155.872 131.24 165.587 131.397 175.375 130.813C186.91 130.127 198.391 128.766 209.769 126.761C210.215 126.683 210.438 127.249 210.173 127.478C210.269 127.472 210.372 127.502 210.468 127.586C216.308 133.125 223.383 126.647 224.709 120.573C226.18 113.843 224.01 106.378 217.543 103.193C217.272 103.061 217.357 102.675 217.574 102.561C217.604 102.537 217.634 102.519 217.67 102.513C223.54 101.622 222.335 93.4769 220.376 89.8107C218.14 85.6148 214.018 83.9593 210.329 81.3707C205.008 77.6322 202.055 71.7266 200.518 65.5561C197.149 52.0653 200.759 33.3491 187.687 24.1506C177.074 16.6797 158.229 20.1954 150.141 29.9719C140.872 41.1811 148.134 57.4532 140.131 69.1862C136.364 74.7005 129.952 76.5426 124.287 79.4443C120.472 81.4008 116.639 84.1339 115.313 88.4381C113.933 92.9351 116.669 98.3049 121.84 98.028C122.268 98.0039 122.431 98.636 122.057 98.8287C119.55 100.159 117.44 102.633 117.561 105.619C117.7 109.057 121.099 111.513 124.383 110.694C124.419 110.676 124.461 110.658 124.504 110.646C124.6 110.61 124.672 110.634 124.733 110.688C124.932 110.796 124.962 111.152 124.678 111.242C124.588 111.266 124.504 111.284 124.413 111.314ZM18.4464 66.73C17.9522 65.6404 17.3978 64.599 16.7951 63.5695C15.3788 64.3642 14.0289 65.219 12.7271 66.134C13.4684 67.0671 14.2277 67.9942 14.9268 68.9634C16.0237 68.1267 17.229 67.314 18.4464 66.73ZM19.9832 61.9321C19.0732 62.3475 18.2053 62.7929 17.3616 63.2565C17.9884 64.2739 18.5006 65.3876 18.8864 66.5133C19.7361 66.1461 20.5859 65.8993 21.4055 65.8571C21.3151 64.3943 20.8209 63.112 19.9892 61.9261C19.9892 61.92 19.9892 61.9321 19.9832 61.9321ZM9.54502 73.8397C10.0995 72.9728 10.901 72.1781 11.8653 71.3895C10.8709 70.6129 9.9006 69.7882 8.92428 68.9815C8.17094 69.5775 7.41761 70.1795 6.65223 70.7995C7.11628 71.3955 7.49596 72.0397 8.02631 72.5935C8.48433 73.0751 9.01468 73.4483 9.54502 73.8397ZM12.4258 66.3387C11.3349 67.1153 10.2682 67.922 9.19548 68.7588C10.226 69.5173 11.2686 70.2638 12.2751 71.0524C12.92 70.5467 13.6793 69.9206 14.511 69.2765C13.7818 68.3193 13.1068 67.332 12.4258 66.3387ZM16.6505 69.2705C14.8545 70.4082 12.6126 71.6604 11.2084 73.2557C7.77921 77.1507 11.4073 82.1412 13.4865 85.8736C20.6522 98.7083 30.4334 109.592 41.8479 118.797C39.0576 113.728 37.6413 107.937 38.25 101.58C37.1954 101.923 36.1467 102.266 35.0921 102.609C34.7003 102.736 34.2845 102.236 34.5376 101.887C37.9366 97.1431 38.6779 91.8214 38.4489 86.3552C35.8032 83.6462 33.2961 80.8048 30.9578 77.8249C29.8428 76.4102 28.7701 74.9654 27.7335 73.4965C26.7753 72.142 25.9436 70.2999 24.7925 69.12C23.2497 67.5367 20.9776 66.8203 18.9466 67.8919C18.1571 68.3133 17.4038 68.8009 16.6505 69.2705ZM75.1995 57.8505C69.9865 61.9261 67.1479 70.7273 67.0575 76.7232C66.9791 81.5934 67.9073 86.289 69.3597 90.8582C69.3959 90.8461 69.426 90.8341 69.4621 90.8281C72.0295 90.6234 74.6089 90.4308 77.2004 90.2502C73.4156 85.2054 72.0777 79.0229 72.0476 72.7741C72.0235 67.916 72.2826 61.9863 75.1995 57.8505ZM96.2446 133.835C86.5056 136.731 76.3325 137.014 66.4548 134.696C66.8887 135.683 67.1419 136.676 67.2684 137.808C67.3046 138.109 66.943 138.35 66.6718 138.266C65.6533 137.917 64.6348 137.537 63.6344 137.128C70.2336 148.343 71.9632 162.267 74.1087 174.867C76.2723 187.545 77.9658 200.296 79.2193 213.094C94.0449 213.648 108.883 213.961 123.726 214.13C125.902 205.094 127.625 195.967 128.746 186.733C130.108 175.457 130.38 164.188 130.591 152.852C130.591 152.75 130.645 152.684 130.711 152.653C130.542 152.509 130.386 152.359 130.241 152.208C127.674 149.541 127.198 145.496 128.994 142.293C129 142.287 129.006 142.281 129.012 142.275C128.084 142.082 127.161 141.854 126.251 141.589C124.552 141.089 122.551 140.601 121.267 139.313C120.815 139.018 120.436 138.561 120.345 138.085C120.231 137.531 120.454 136.965 120.966 136.731C120.912 136.682 120.852 136.64 120.797 136.592C119.538 135.84 119.435 133.907 120.677 133.076C120.502 132.92 120.345 132.745 120.225 132.547C119.725 132.276 119.556 131.577 119.712 131.03C119.917 130.313 120.55 129.964 121.225 129.808C120.942 129.464 120.797 129.121 120.846 128.772C109.606 128.995 97.6368 128.628 86.7888 125.371C89.772 128.134 92.9661 130.674 96.3591 132.974C96.6906 133.197 96.6545 133.709 96.2446 133.835ZM86.6803 58.6873C85.258 58.4585 83.6127 57.3388 83.6489 55.9061C81.0816 55.3041 78.7914 55.7194 76.7906 56.803C73.2469 61.2458 72.7708 67.2417 72.8069 72.7741C72.8551 79.0048 74.181 85.2295 78.1405 90.1839C90.0673 89.3833 102.139 88.9799 114.017 89.7625C114.276 87.9866 115.018 86.2529 116.048 84.7659C118.049 81.8824 120.833 80.0643 123.847 78.5473C123.696 78.5112 123.564 78.4028 123.545 78.2102C122.714 67.9882 122.696 56.502 114.662 48.959C106.894 41.6627 96.1121 41.3196 87.0058 46.1236C87.6205 46.6834 88.2292 47.2914 88.7836 47.9416C89.5249 47.0145 91.5619 48.4894 92.0923 49.1516C93.5266 50.9335 93.8882 53.5342 92.8215 55.581C91.6945 57.7361 89.091 59.0786 86.6803 58.6873ZM84.2516 55.1114C85.1074 55.3281 85.9873 55.6472 86.8852 56.0927C87.0118 56.1589 87.0781 56.2492 87.1022 56.3515C90.4952 56.3335 90.4108 51.7041 88.9464 49.4406C88.199 48.2847 87.1323 47.3095 86.1018 46.4065C84.3058 44.8172 82.3411 43.4326 80.2378 42.2828C76.0433 39.9832 71.3666 38.6226 66.5874 38.3758C57.3968 37.9002 48.5436 41.9397 42.8966 49.1998C35.8514 58.2659 37.3219 68.6685 38.7924 79.3058C39.8109 86.7224 40.1846 94.6989 36.1407 101.243C36.9784 100.972 37.8221 100.701 38.6659 100.43C38.9371 100.346 39.3168 100.587 39.2806 100.9C38.2139 109.538 41.2332 118.141 46.9284 124.673C49.6585 127.797 52.9129 130.44 56.4566 132.583C58.1139 133.588 59.8436 134.491 61.6094 135.292C62.5254 135.707 64.0864 136.701 65.0928 136.713L66.0028 137.044C66.1414 136.014 65.8763 135.081 65.2013 134.244C65.0024 133.883 65.3278 133.45 65.7316 133.552C75.4285 136.002 85.4147 135.87 95.0333 133.191C85.0712 126.274 76.8086 117.31 70.7518 106.793C70.5469 106.438 70.8844 105.98 71.2882 106.095C72.4996 106.444 73.6446 106.558 74.85 106.48C69.6791 95.5658 64.3997 83.7726 66.5814 71.4196C67.63 65.4899 71.4811 58.5368 76.9533 55.882C77.0075 55.8278 77.0618 55.7736 77.116 55.7194C77.2004 55.6532 77.2968 55.6532 77.3751 55.6893C79.3579 54.8164 81.5516 54.5094 83.89 55.0211C83.9261 54.9549 83.9502 54.8887 83.9924 54.8225C84.0587 54.7141 84.2817 54.7442 84.2636 54.8947C84.2516 54.979 84.2516 55.0452 84.2516 55.1114ZM86.4151 56.8873C85.71 56.5442 85.023 56.2793 84.348 56.0806C84.8482 57.7542 86.9696 58.4104 88.7294 57.983C90.0251 57.6699 91.2726 56.8392 91.9958 55.7194C92.7914 54.4853 92.9842 52.9864 92.6045 51.5777C92.4478 50.9998 92.2068 50.4399 91.8753 49.9402C91.7307 49.7295 89.8564 47.466 89.1814 48.4352C90.2059 49.7657 90.9171 51.2586 90.8267 52.8479C90.7845 53.5583 90.5796 54.2144 90.2421 54.7863C90.2421 54.7924 90.2481 54.7984 90.2481 54.8104C89.8805 56.0566 88.4702 56.8452 87.2468 56.9174C87.1444 56.9234 87.1022 56.8151 87.1203 56.7308C87.0841 56.7308 87.048 56.7368 87.0118 56.7368C86.8852 56.9114 86.6562 57.0137 86.4151 56.8873ZM86.0536 124.697C97.6971 127.46 109.172 127.58 121.05 128.104C121.05 128.104 121.05 128.104 121.056 128.104C121.147 127.911 121.279 127.755 121.46 127.64C121.267 126.906 121.484 126.003 121.936 125.365C116.084 122.68 118.35 114.631 122.81 111.537C120.273 111.507 117.886 109.815 117.061 107.269C115.994 103.988 117.826 100.773 120.424 98.8527C117.892 98.5397 115.759 96.8902 114.644 94.4882C114.023 93.1518 113.83 91.7311 113.951 90.3284C99.1555 90.7318 84.4143 90.6896 69.6369 91.707C71.3485 96.8421 73.6868 101.815 75.989 106.667C76.1517 107.016 75.9468 107.341 75.5732 107.383C74.3558 107.534 73.271 107.503 72.15 107.287C75.983 113.728 80.6537 119.58 86.0536 124.697ZM4.9286 51.68C4.27169 51.4151 3.38577 51.4392 2.86145 51.963C2.23468 52.571 2.40343 53.3476 2.71079 54.0579C2.74092 54.1241 2.73489 54.1904 2.71681 54.2445C4.19937 56.6104 5.84465 58.6632 8.03836 60.4933C8.28545 60.698 7.95398 61.1254 7.69484 60.9388C5.45894 59.2893 3.50028 57.0137 2.35521 54.4432C2.3311 54.4733 2.30097 54.4974 2.25276 54.5154C-2.20697 56.0084 8.15287 64.906 10.2019 66.5855C12.4258 64.7976 14.975 63.3107 17.5243 62.1849C18.0004 60.3067 19.2841 52.3603 16.8915 51.2406C14.7822 51.7101 15.2583 56.1408 15.3306 57.7301C15.3487 58.0973 14.7762 58.0913 14.7641 57.7301C14.7641 57.7241 14.7641 57.7121 14.7641 57.706C13.6914 54.9368 12.709 46.6533 8.77964 46.5389C7.20668 47.8393 9.73185 51.367 10.3586 52.583C11.1541 54.1302 11.9677 55.6653 12.7271 57.2365C12.8838 57.5676 12.4077 57.8565 12.2269 57.5254C10.7805 54.8766 8.88812 51.969 7.9118 49.1095C7.88769 49.0372 7.86961 48.965 7.8455 48.8928C7.77921 48.9469 7.68278 48.953 7.60444 48.8747C7.16449 48.3811 6.47142 48.0921 5.82054 48.3209C5.34444 48.4894 5.08529 48.8506 4.94668 49.278C5.36855 52.8539 8.21916 55.7074 10.0995 58.6271C10.2923 58.9281 9.82827 59.1809 9.62337 58.904C8.31558 57.1402 6.99574 55.3161 5.8567 53.4318C5.50716 52.8599 5.1998 52.276 4.97079 51.68C4.95873 51.68 4.94065 51.68 4.9286 51.68ZM4.45852 51.1141C3.99446 50.5001 3.97036 49.5911 4.41031 48.959C4.79601 47.7791 6.5558 47.2794 7.54417 48.1643C7.38145 47.767 7.37543 47.3637 7.55623 46.9603C7.65868 46.7316 7.83345 46.4968 8.04438 46.3343C8.04438 46.262 8.08657 46.1958 8.183 46.1597C11.7689 44.7931 13.9264 51.3128 14.7038 55.3582C14.734 53.4559 15.0233 51.1924 16.3552 50.9697C16.3672 50.9215 16.3973 50.8854 16.4576 50.8794C18.3861 50.8493 18.9768 52.4084 18.9647 54.1241C18.9406 56.4659 19.0009 59.6746 18.0486 61.9441C18.1089 61.92 18.1632 61.8899 18.2234 61.8659C18.6754 61.5709 19.1515 61.3 19.6035 61.0411C19.6517 61.017 19.6939 61.0291 19.7241 61.0532C19.7783 61.0471 19.8325 61.0592 19.8868 61.1013C21.3031 62.2692 22.0624 64.0511 22.1166 65.8692C22.189 65.8752 22.2673 65.8752 22.3396 65.8872C25.5639 66.411 27.5346 71.5581 29.192 73.8637C32.0185 77.7767 35.1101 81.467 38.3766 85.0188C37.9969 79.5888 36.8097 74.0504 36.436 68.819C35.8454 60.5054 38.015 52.7155 43.7765 46.545C48.875 41.0788 55.9383 37.7257 63.4114 37.3524C71.2521 36.9611 79.2193 39.7243 85.2882 44.6547C85.6859 44.9798 86.1198 45.341 86.5598 45.7262C94.7922 40.1036 106.333 40.9704 113.993 47.153C122.997 54.4251 124.419 67.3381 124.275 78.2041C124.275 78.2523 124.263 78.2944 124.251 78.3366C129.409 75.7962 135.159 74.0383 138.751 69.3547C144.337 62.0705 143.132 52.1737 144.084 43.5952C144.862 36.5939 147.399 30.291 153.088 25.8903C163.255 18.0222 182.293 16.0958 191.478 26.4141C203.236 39.622 196.281 59.3495 204.749 73.936C207.135 78.0536 210.504 80.5038 214.452 82.984C216.308 84.1459 217.989 85.4583 219.345 87.0656C219.381 87.0415 219.418 87.0174 219.466 87.0054C227.698 84.8502 236.027 83.1165 244.434 81.8161C244.163 80.7265 244.079 79.5526 244.314 78.451C242.994 78.7399 241.566 78.6255 240.246 78.1199C236.25 76.5908 233.502 72.1721 231.628 68.524C229.127 71.4738 225.854 67.7233 224.775 65.3514C222.612 60.6017 223.703 55.1716 225.095 50.3677C222.696 51.385 220.231 50.8733 219.942 47.773C219.574 43.86 221.991 38.9598 224.528 35.7993C214.928 34.5953 221.696 18.5459 228.928 17.2276C226.969 12.0805 230.675 7.37884 235.937 6.57216C242.542 5.55478 249.937 9.9253 254.71 14.1453C259.471 11.4423 265.817 8.73334 271.301 10.8885C274.857 12.2912 275.436 15.2951 272.507 17.348C277.045 19.8463 280.389 24.3613 281.896 29.2796C282.649 31.7237 283.415 39.4775 278.539 37.2681C278.509 37.2561 278.473 37.2441 278.437 37.226C277.973 37.0033 278.383 36.329 278.841 36.5397C282.854 38.3517 281.751 31.9525 281.474 30.7665C281.311 30.0502 281.101 29.3398 280.847 28.6475C280.311 27.1545 279.618 25.7158 278.756 24.3793C276.984 21.6222 274.628 19.5091 271.976 17.661C271.813 17.6851 271.681 17.5707 271.627 17.4202C271.518 17.348 271.41 17.2697 271.301 17.1975C271.187 17.1252 271.181 17.0108 271.229 16.9266C271.229 16.8844 271.247 16.8483 271.295 16.8182C272.525 16.1319 273.139 15.1687 273.169 13.7661C273.169 13.736 273.176 13.7119 273.188 13.6878C272.73 12.5982 271.482 11.6771 270.03 11.2979C268.029 10.7741 265.871 10.8524 263.852 11.2377C260.694 11.8336 257.832 13.2965 254.939 14.6329C254.939 14.6329 254.939 14.6329 254.933 14.6329C254.86 14.7654 254.704 14.8497 254.559 14.7473C250.551 11.8999 246.224 9.17882 241.409 7.95676C235.189 6.37952 227.252 9.54002 229.771 17.2998C229.874 17.6309 229.464 17.8717 229.211 17.7393C226.27 18.5339 224.287 20.5325 222.811 23.1753C220.912 26.5586 218.508 34.2642 224.667 35.0227C224.824 35.0468 224.926 35.1371 224.986 35.2514C225.077 35.1371 225.173 35.0287 225.27 34.9264C225.36 34.824 225.511 34.9504 225.45 35.0648C224.167 37.3283 222.871 39.5196 221.967 41.9758C221.087 44.3838 219.02 52.0352 225.396 49.4827C225.758 49.3443 225.987 49.9282 225.655 50.1028C225.631 50.1148 225.607 50.1269 225.583 50.1389C225.601 50.181 225.613 50.2292 225.601 50.2894C225.016 53.3054 224.263 56.3275 224.305 59.4217C224.329 60.8665 224.504 62.3113 224.944 63.6959C225.221 64.605 225.607 65.4598 226.107 66.2665C227.059 68.2109 228.777 68.7828 231.266 67.9882C231.405 67.8618 231.555 67.8798 231.658 67.9641C231.748 67.934 231.851 67.9581 231.917 68.0604C233.574 70.5347 235.147 73.1955 237.341 75.2483C240.095 77.8309 244.651 79.1493 247.315 75.6457C247.357 75.5975 247.399 75.5614 247.448 75.5313C247.243 75.3025 247.568 74.9774 247.797 75.1942C253.818 80.877 261.532 76.0851 265.341 70.4624C265.528 70.1855 265.883 70.2698 266.022 70.4805C266.13 70.3902 266.317 70.4022 266.383 70.5768C267.95 74.8992 272.543 71.835 273.76 69.12C274.761 66.8926 275.098 64.4244 275.875 62.1247C275.978 61.8237 276.346 61.8779 276.43 62.1127C276.472 62.1127 276.52 62.1187 276.562 62.1428C282.312 64.8698 280.902 52.4927 280.624 49.9222C280.166 45.7684 279.22 41.7109 278.105 37.6895C278.045 37.4548 278.304 37.3344 278.461 37.4427C278.503 37.4668 278.539 37.5089 278.557 37.5631C280.769 43.7336 281.854 50.476 281.715 57.0378C281.661 59.8311 280.094 64.7795 276.364 62.6966C275.719 66.0678 274.881 70.7213 271.801 72.6657C269.722 73.9841 266.631 73.4724 265.998 70.8778C265.365 71.8109 264.612 72.732 263.774 73.5928C263.774 73.5988 263.774 73.5988 263.78 73.6049C264.081 75.6095 264.154 77.566 264.039 79.5707C268.246 79.2215 272.488 78.9747 276.665 79.1734C280.956 79.378 285.404 80.3473 288.58 83.4355C291.225 86.0181 292.72 89.7565 291.509 93.3926C291.147 94.4762 290.605 95.4575 289.942 96.3665C308.178 92.4535 324.613 81.5212 335.473 66.3809C340.403 59.512 344.115 51.8606 346.412 43.7276C347.117 41.2112 347.719 38.6648 348.515 36.1725C349.015 34.5892 349.564 32.2595 350.787 30.9893C351.251 30.5017 351.817 30.1826 352.444 29.9779C353.029 29.7913 353.674 29.707 354.343 29.689C354.282 28.491 354.035 27.3351 353.613 26.2094C353.601 26.1673 353.595 26.1251 353.595 26.089C353.439 26.1492 353.276 26.2214 353.107 26.3178C351.836 26.5345 351.607 27.3231 352.42 28.6836C352.474 29.0147 352.529 29.3518 352.583 29.689C352.601 29.8154 352.529 29.9117 352.438 29.9478C352.33 29.99 352.197 29.9599 352.155 29.8094C351.721 28.4308 350.715 26.2756 352.203 25.3064C352.625 25.0295 353.312 24.9873 354.011 25.0114C353.071 20.3941 351.323 16.6737 348.828 12.6704C348.039 11.4002 347.647 9.88918 348.382 8.7815C348.599 8.34204 348.943 8.07114 349.341 7.9387C349.395 7.9086 349.443 7.8785 349.503 7.8484C349.557 7.8183 349.606 7.83636 349.642 7.86646C350.407 7.74606 351.299 8.04706 351.914 8.55274C353.294 9.69052 354.294 11.4905 355.048 13.2002C354.807 10.0818 354.945 6.87918 355.277 3.79092C355.433 2.30398 355.59 0.925403 357.121 0.395643C357.229 0.359523 357.29 0.461863 357.26 0.546143C358.055 0.479923 358.814 1.00968 359.188 1.90666C359.254 2.05114 359.297 2.2197 359.339 2.38224C359.477 1.89462 359.755 1.45516 360.17 1.14212C360.592 0.823057 361.141 0.666543 361.641 0.780923C362.684 0.720723 363.262 1.7682 363.557 3.29728C363.937 2.33408 365.028 1.59964 366.052 1.92472C366.173 1.96686 366.203 2.08725 366.167 2.18357C367.071 2.74343 366.993 3.85112 367.017 4.92268C367.017 4.95278 367.017 4.98288 367.017 5.01298C367.372 4.27252 368.554 3.89326 369.138 4.57954C370.946 6.0725 369.855 10.7801 369.674 12.6704C369.247 17.1914 368.222 21.6342 367.228 26.0589C367.222 26.0709 367.222 26.0709 367.216 26.077C368.126 26.1793 369.421 26.3117 369.897 26.8776C371.085 28.2743 369.397 31.3685 368.981 32.8133C368.975 32.8434 368.957 32.8615 368.945 32.8856C369.18 33.0722 369.409 33.2709 369.62 33.4936C371.85 35.8534 371.712 39.4594 371.362 42.4574C370.265 51.8606 368.294 61.2458 365.649 70.336C355.91 103.783 333.219 135.268 298.289 145.008C299.777 157.012 299.898 169.329 300.47 181.411C301.007 192.644 301.453 203.878 301.838 215.117C302.748 215.153 303.664 215.183 304.574 215.219C305.268 215.249 305.268 216.333 304.574 216.303C303.676 216.261 302.779 216.237 301.881 216.195C301.899 216.851 301.929 217.507 301.953 218.157C301.971 218.825 300.934 218.825 300.91 218.157C300.892 217.495 300.868 216.827 300.85 216.158C285.307 215.532 269.758 215.201 254.21 215.063C241.035 214.948 227.861 214.973 214.687 215.039C214.693 215.779 214.693 216.514 214.699 217.248C214.705 217.832 213.801 217.832 213.795 217.248C213.795 216.514 213.789 215.779 213.783 215.045C213.379 215.051 212.969 215.051 212.565 215.051C212.867 215.882 213.174 216.712 213.506 217.531C213.735 218.103 212.818 218.344 212.589 217.784C212.228 216.881 211.878 215.972 211.547 215.057C182.504 215.225 153.45 215.581 124.419 215.201C123.901 217.23 123.377 219.253 122.816 221.251C122.666 221.787 121.834 221.558 121.979 221.023C122.497 219.084 122.985 217.134 123.467 215.189C108.738 214.985 94.0088 214.581 79.2916 213.865C79.4182 215.177 79.5447 216.49 79.6653 217.802C79.7255 218.494 78.6468 218.488 78.5805 217.802C78.466 216.472 78.3334 215.141 78.2068 213.817C76.893 213.75 75.5852 213.696 74.2714 213.624C73.8134 213.6 73.8074 212.884 74.2714 212.908C75.5611 212.956 76.8448 212.998 78.1345 213.046C76.893 200.356 75.2297 187.708 73.1083 175.138C70.9206 162.123 68.8173 148.921 63.1281 136.905C54.739 133.365 47.1273 127.538 42.5591 120.007C42.0107 119.646 41.4864 119.206 40.9922 118.785C34.0193 113.65 27.7697 107.522 22.3637 100.767C19.6638 97.3959 17.1688 93.8622 14.8967 90.19C12.7331 86.6924 10.1597 82.8456 8.98454 78.8724C8.4542 77.0724 8.59884 75.6396 9.23164 74.3814C7.85756 73.7614 6.47142 72.437 5.97724 71.1005C5.90492 70.9139 6.03148 70.7393 6.1942 70.6611C6.20022 70.6551 6.20023 70.6551 6.20023 70.649C6.82097 69.8183 7.52609 69.0237 8.28545 68.2711C8.29148 68.2711 8.29148 68.2651 8.2975 68.2651C8.76156 67.8076 9.25574 67.3742 9.76198 66.9467C7.43569 65.0866 -3.7257 55.2077 2.11414 54.0459C1.65612 53.3175 1.84897 52.2038 2.41548 51.6078C2.95788 51.0419 3.76545 50.8613 4.45852 51.1141Z" fill="#071C2E"/>
</g>
</g>
</svg>
