<svg width="81" height="59" viewBox="0 0 81 59" fill="none" xmlns="http://www.w3.org/2000/svg">
<rect width="81" height="59" fill="#BCBCBC"/>
<g clip-path="url(#clip0)">
<rect width="1366" height="1556" transform="translate(-487 -574)" fill="white"/>
<g filter="url(#filter0_i)">
<path d="M0.419922 4.02387C0.419922 1.80155 2.22147 0 4.44379 0H76.2027C78.4251 0 80.2266 1.80155 80.2266 4.02387V54.4309C80.2266 56.6532 78.4251 58.4547 76.2027 58.4547H4.44379C2.22147 58.4547 0.419922 56.6532 0.419922 54.4309V4.02387Z" fill="white"/>
<path d="M4.44379 0.670644H76.2027V-0.670644H4.44379V0.670644ZM79.556 4.02387V54.4309H80.8973V4.02387H79.556ZM76.2027 57.7841H4.44379V59.1254H76.2027V57.7841ZM1.09057 54.4309V4.02387H-0.250723V54.4309H1.09057ZM4.44379 57.7841C2.59185 57.7841 1.09057 56.2828 1.09057 54.4309H-0.250723C-0.250723 57.0236 1.85108 59.1254 4.44379 59.1254V57.7841ZM79.556 54.4309C79.556 56.2828 78.0547 57.7841 76.2027 57.7841V59.1254C78.7954 59.1254 80.8973 57.0236 80.8973 54.4309H79.556ZM76.2027 0.670644C78.0547 0.670644 79.556 2.17193 79.556 4.02387H80.8973C80.8973 1.43116 78.7954 -0.670644 76.2027 -0.670644V0.670644ZM4.44379 -0.670644C1.85108 -0.670644 -0.250723 1.43116 -0.250723 4.02387H1.09057C1.09057 2.17193 2.59185 0.670644 4.44379 0.670644V-0.670644Z" fill="#D1D5DA"/>
</g>
<g filter="url(#filter1_i)">
<path d="M80.2266 13.2853L0.419876 13.2853V4.02404C0.419876 1.80172 2.22142 0.000173569 4.44374 0.000173569L76.2027 0.000173569C78.425 0.000173569 80.2266 1.80172 80.2266 4.02404V13.2853Z" fill="#B6BCC2"/>
<path d="M80.2266 13.2853V13.956H80.8972V13.2853H80.2266ZM0.419876 13.2853H-0.250771V13.956L0.419876 13.956V13.2853ZM80.2266 12.6147L0.419876 12.6147V13.956L80.2266 13.956V12.6147ZM1.09052 13.2853V4.02404H-0.250771V13.2853H1.09052ZM4.44374 0.670818L76.2027 0.670818V-0.670471L4.44374 -0.670471V0.670818ZM79.5559 4.02404V13.2853H80.8972V4.02404H79.5559ZM76.2027 0.670818C78.0546 0.670818 79.5559 2.17211 79.5559 4.02404H80.8972C80.8972 1.43133 78.7954 -0.670471 76.2027 -0.670471V0.670818ZM1.09052 4.02404C1.09052 2.17211 2.59181 0.670818 4.44374 0.670818V-0.670471C1.85104 -0.670471 -0.250771 1.43134 -0.250771 4.02404H1.09052Z" fill="#E1E4E8"/>
</g>
</g>
<defs>
<filter id="filter0_i" x="0.419922" y="0" width="79.8067" height="59.1254" filterUnits="userSpaceOnUse" color-interpolation-filters="sRGB">
<feFlood flood-opacity="0" result="BackgroundImageFix"/>
<feBlend mode="normal" in="SourceGraphic" in2="BackgroundImageFix" result="shape"/>
<feColorMatrix in="SourceAlpha" type="matrix" values="0 0 0 0 0 0 0 0 0 0 0 0 0 0 0 0 0 0 127 0" result="hardAlpha"/>
<feOffset dy="0.670644"/>
<feGaussianBlur stdDeviation="0.670644"/>
<feComposite in2="hardAlpha" operator="arithmetic" k2="-1" k3="1"/>
<feColorMatrix type="matrix" values="0 0 0 0 0.878431 0 0 0 0 0.878431 0 0 0 0 0.878431 0 0 0 1 0"/>
<feBlend mode="normal" in2="shape" result="effect1_innerShadow"/>
</filter>
<filter id="filter1_i" x="0.419922" y="0.000183105" width="79.8067" height="13.9558" filterUnits="userSpaceOnUse" color-interpolation-filters="sRGB">
<feFlood flood-opacity="0" result="BackgroundImageFix"/>
<feBlend mode="normal" in="SourceGraphic" in2="BackgroundImageFix" result="shape"/>
<feColorMatrix in="SourceAlpha" type="matrix" values="0 0 0 0 0 0 0 0 0 0 0 0 0 0 0 0 0 0 127 0" result="hardAlpha"/>
<feOffset dy="0.670644"/>
<feGaussianBlur stdDeviation="0.670644"/>
<feComposite in2="hardAlpha" operator="arithmetic" k2="-1" k3="1"/>
<feColorMatrix type="matrix" values="0 0 0 0 0.878431 0 0 0 0 0.878431 0 0 0 0 0.878431 0 0 0 1 0"/>
<feBlend mode="normal" in2="shape" result="effect1_innerShadow"/>
</filter>
<clipPath id="clip0">
<rect width="1366" height="1556" fill="white" transform="translate(-487 -574)"/>
</clipPath>
</defs>
</svg>
