<svg width="24" height="24" viewBox="0 0 24 24" fill="none" xmlns="http://www.w3.org/2000/svg">
<path d="M23.25 20.25H12.75C12.336 20.25 12 19.9155 12 19.5C12 19.0845 12 4.914 12 4.5C12 4.086 12.336 3.75 12.75 3.75H23.25C23.664 3.75 24 4.086 24 4.5V19.5C24 19.9155 23.664 20.25 23.25 20.25Z" fill="#ECEFF1"/>
<path d="M20.25 8.25H12.75C12.336 8.25 12 7.9155 12 7.5C12 7.0845 12.336 6.75 12.75 6.75H20.25C20.664 6.75 21 7.086 21 7.5C21 7.914 20.664 8.25 20.25 8.25Z" fill="#1976D2"/>
<path d="M20.25 11.25H12.75C12.336 11.25 12 10.9155 12 10.5C12 10.0845 12.336 9.75 12.75 9.75H20.25C20.664 9.75 21 10.086 21 10.5C21 10.914 20.664 11.25 20.25 11.25Z" fill="#1976D2"/>
<path d="M20.25 14.25H12.75C12.336 14.25 12 13.9155 12 13.5C12 13.0845 12.336 12.75 12.75 12.75H20.25C20.664 12.75 21 13.086 21 13.5C21 13.914 20.664 14.25 20.25 14.25Z" fill="#1976D2"/>
<path d="M20.25 17.25H12.75C12.336 17.25 12 16.9155 12 16.5C12 16.0845 12.336 15.75 12.75 15.75H20.25C20.664 15.75 21 16.086 21 16.5C21 16.914 20.664 17.25 20.25 17.25Z" fill="#1976D2"/>
<path d="M13.2285 0.924399C13.0575 0.780399 12.828 0.720399 12.612 0.763899L0.612 3.0139C0.258 3.0799 0 3.3904 0 3.7504V20.2504C0 20.6104 0.2565 20.9209 0.612 20.9869L12.612 23.2369C12.6585 23.2459 12.7035 23.2504 12.75 23.2504C12.924 23.2504 13.0935 23.1904 13.2285 23.0779C13.401 22.9354 13.5 22.7239 13.5 22.5004V1.5004C13.5 1.2769 13.401 1.0669 13.2285 0.924399Z" fill="#1565C0"/>
<path d="M9.74561 15.8352C9.70661 16.1787 9.43661 16.4532 9.09311 16.4952C9.06161 16.4997 9.03161 16.5012 9.00011 16.5012C8.69111 16.5012 8.40911 16.3092 8.29811 16.0152L6.75011 11.8872L5.20211 16.0152C5.08211 16.3362 4.76711 16.5327 4.41911 16.4967C4.07861 16.4607 3.80561 16.1967 3.75761 15.8562L3.00761 10.6062C2.94911 10.1982 3.23411 9.81725 3.64361 9.75875C4.05461 9.69875 4.43411 9.98525 4.49261 10.3947L4.82711 12.7407L6.04661 9.48725C6.26561 8.90225 7.23161 8.90225 7.45211 9.48725L8.60111 12.5502L9.00461 8.91725C9.05111 8.50625 9.43211 8.21075 9.83261 8.25425C10.2451 8.30225 10.5406 8.67275 10.4956 9.08375L9.74561 15.8352Z" fill="#FAFAFA"/>
</svg>
